# Blender v2.74 (sub 0) OBJ File: ''
# www.blender.org
mtllib test-scene.mtl
o sphere
v 0 1 -0
v 0.309 0.9511 -0
v 0.5878 0.809 -0
v 0.809 0.5878 -0
v 0.9511 0.309 -0
v 1 0 0
v 0.9511 -0.309 0
v 0.809 -0.5878 0
v 0.5878 -0.809 0
v 0.309 -0.9511 0
v 0 -1 0
v 0.2855 0.9511 0.1183
v 0.543 0.809 0.2249
v 0.7474 0.5878 0.3096
v 0.8787 0.309 0.364
v 0.9239 0 0.3827
v 0.8787 -0.309 0.364
v 0.7474 -0.5878 0.3096
v 0.543 -0.809 0.2249
v 0.2855 -0.9511 0.1183
v 0.2185 0.9511 0.2185
v 0.4156 0.809 0.4156
v 0.5721 0.5878 0.5721
v 0.6725 0.309 0.6725
v 0.7071 0 0.7071
v 0.6725 -0.309 0.6725
v 0.5721 -0.5878 0.5721
v 0.4156 -0.809 0.4156
v 0.2185 -0.9511 0.2185
v 0.1183 0.9511 0.2855
v 0.2249 0.809 0.543
v 0.3096 0.5878 0.7474
v 0.364 0.309 0.8787
v 0.3827 0 0.9239
v 0.364 -0.309 0.8787
v 0.3096 -0.5878 0.7474
v 0.2249 -0.809 0.543
v 0.1183 -0.9511 0.2855
v 0 0.9511 0.309
v 0 0.809 0.5878
v 0 0.5878 0.809
v 0 0.309 0.9511
v 0 0 1
v 0 -0.309 0.9511
v 0 -0.5878 0.809
v 0 -0.809 0.5878
v 0 -0.9511 0.309
v -0.1183 0.9511 0.2855
v -0.2249 0.809 0.543
v -0.3096 0.5878 0.7474
v -0.364 0.309 0.8787
v -0.3827 0 0.9239
v -0.364 -0.309 0.8787
v -0.3096 -0.5878 0.7474
v -0.2249 -0.809 0.543
v -0.1183 -0.9511 0.2855
v -0.2185 0.9511 0.2185
v -0.4156 0.809 0.4156
v -0.5721 0.5878 0.5721
v -0.6725 0.309 0.6725
v -0.7071 0 0.7071
v -0.6725 -0.309 0.6725
v -0.5721 -0.5878 0.5721
v -0.4156 -0.809 0.4156
v -0.2185 -0.9511 0.2185
v -0.2855 0.9511 0.1183
v -0.543 0.809 0.2249
v -0.7474 0.5878 0.3096
v -0.8787 0.309 0.364
v -0.9239 0 0.3827
v -0.8787 -0.309 0.364
v -0.7474 -0.5878 0.3096
v -0.543 -0.809 0.2249
v -0.2855 -0.9511 0.1183
v -0.309 0.9511 -0
v -0.5878 0.809 -0
v -0.809 0.5878 -0
v -0.9511 0.309 -0
v -1 0 0
v -0.9511 -0.309 0
v -0.809 -0.5878 0
v -0.5878 -0.809 0
v -0.309 -0.9511 0
v -0.2855 0.9511 -0.1183
v -0.543 0.809 -0.2249
v -0.7474 0.5878 -0.3096
v -0.8787 0.309 -0.364
v -0.9239 -0 -0.3827
v -0.8787 -0.309 -0.364
v -0.7474 -0.5878 -0.3096
v -0.543 -0.809 -0.2249
v -0.2855 -0.9511 -0.1183
v -0.2185 0.9511 -0.2185
v -0.4156 0.809 -0.4156
v -0.5721 0.5878 -0.5721
v -0.6725 0.309 -0.6725
v -0.7071 -0 -0.7071
v -0.6725 -0.309 -0.6725
v -0.5721 -0.5878 -0.5721
v -0.4156 -0.809 -0.4156
v -0.2185 -0.9511 -0.2185
v -0.1183 0.9511 -0.2855
v -0.2249 0.809 -0.543
v -0.3096 0.5878 -0.7474
v -0.364 0.309 -0.8787
v -0.3827 -0 -0.9239
v -0.364 -0.309 -0.8787
v -0.3096 -0.5878 -0.7474
v -0.2249 -0.809 -0.543
v -0.1183 -0.9511 -0.2855
v 0 0.9511 -0.309
v 0 0.809 -0.5878
v 0 0.5878 -0.809
v 0 0.309 -0.9511
v 0 -0 -1
v 0 -0.309 -0.9511
v 0 -0.5878 -0.809
v 0 -0.809 -0.5878
v 0 -0.9511 -0.309
v 0.1183 0.9511 -0.2855
v 0.2249 0.809 -0.543
v 0.3096 0.5878 -0.7474
v 0.364 0.309 -0.8787
v 0.3827 -0 -0.9239
v 0.364 -0.309 -0.8787
v 0.3096 -0.5878 -0.7474
v 0.2249 -0.809 -0.543
v 0.1183 -0.9511 -0.2855
v 0.2185 0.9511 -0.2185
v 0.4156 0.809 -0.4156
v 0.5721 0.5878 -0.5721
v 0.6725 0.309 -0.6725
v 0.7071 -0 -0.7071
v 0.6725 -0.309 -0.6725
v 0.5721 -0.5878 -0.5721
v 0.4156 -0.809 -0.4156
v 0.2185 -0.9511 -0.2185
v 0.2855 0.9511 -0.1183
v 0.543 0.809 -0.2249
v 0.7474 0.5878 -0.3096
v 0.8787 0.309 -0.364
v 0.9239 -0 -0.3827
v 0.8787 -0.309 -0.364
v 0.7474 -0.5878 -0.3096
v 0.543 -0.809 -0.2249
v 0.2855 -0.9511 -0.1183
vt 1 1
vt 0.9375 0.9
vt 1 0.9
vt 0.9375 0.8
vt 1 0.8
vt 0.9375 0.7
vt 1 0.7
vt 0.9375 0.6
vt 1 0.6
vt 0.9375 0.5
vt 1 0.5
vt 0.9375 0.4
vt 1 0.4
vt 0.9375 0.3
vt 1 0.3
vt 0.9375 0.2
vt 1 0.2
vt 0.9375 0.1
vt 1 0.1
vt 0.9375 0
vt 0.9375 1
vt 0.875 0.9
vt 0.875 0.8
vt 0.875 0.7
vt 0.875 0.6
vt 0.875 0.5
vt 0.875 0.4
vt 0.875 0.3
vt 0.875 0.2
vt 0.875 0.1
vt 0.875 0
vt 0.875 1
vt 0.8125 0.9
vt 0.8125 0.8
vt 0.8125 0.7
vt 0.8125 0.6
vt 0.8125 0.5
vt 0.8125 0.4
vt 0.8125 0.3
vt 0.8125 0.2
vt 0.8125 0.1
vt 0.8125 0
vt 0.8125 1
vt 0.75 0.9
vt 0.75 0.8
vt 0.75 0.7
vt 0.75 0.6
vt 0.75 0.5
vt 0.75 0.4
vt 0.75 0.3
vt 0.75 0.2
vt 0.75 0.1
vt 0.75 0
vt 0.75 1
vt 0.6875 0.9
vt 0.6875 0.8
vt 0.6875 0.7
vt 0.6875 0.6
vt 0.6875 0.5
vt 0.6875 0.4
vt 0.6875 0.3
vt 0.6875 0.2
vt 0.6875 0.1
vt 0.6875 0
vt 0.6875 1
vt 0.625 0.9
vt 0.625 0.8
vt 0.625 0.7
vt 0.625 0.6
vt 0.625 0.5
vt 0.625 0.4
vt 0.625 0.3
vt 0.625 0.2
vt 0.625 0.1
vt 0.625 0
vt 0.625 1
vt 0.5625 0.9
vt 0.5625 0.8
vt 0.5625 0.7
vt 0.5625 0.6
vt 0.5625 0.5
vt 0.5625 0.4
vt 0.5625 0.3
vt 0.5625 0.2
vt 0.5625 0.1
vt 0.5625 0
vt 0.5625 1
vt 0.5 0.9
vt 0.5 0.8
vt 0.5 0.7
vt 0.5 0.6
vt 0.5 0.5
vt 0.5 0.4
vt 0.5 0.3
vt 0.5 0.2
vt 0.5 0.1
vt 0.5 0
vt 0.5 1
vt 0.4375 0.9
vt 0.4375 0.8
vt 0.4375 0.7
vt 0.4375 0.6
vt 0.4375 0.5
vt 0.4375 0.4
vt 0.4375 0.3
vt 0.4375 0.2
vt 0.4375 0.1
vt 0.4375 0
vt 0.4375 1
vt 0.375 0.9
vt 0.375 0.8
vt 0.375 0.7
vt 0.375 0.6
vt 0.375 0.5
vt 0.375 0.4
vt 0.375 0.3
vt 0.375 0.2
vt 0.375 0.1
vt 0.375 0
vt 0.375 1
vt 0.3125 0.9
vt 0.3125 0.8
vt 0.3125 0.7
vt 0.3125 0.6
vt 0.3125 0.5
vt 0.3125 0.4
vt 0.3125 0.3
vt 0.3125 0.2
vt 0.3125 0.1
vt 0.3125 0
vt 0.3125 1
vt 0.25 0.9
vt 0.25 0.8
vt 0.25 0.7
vt 0.25 0.6
vt 0.25 0.5
vt 0.25 0.4
vt 0.25 0.3
vt 0.25 0.2
vt 0.25 0.1
vt 0.25 0
vt 0.25 1
vt 0.1875 0.9
vt 0.1875 0.8
vt 0.1875 0.7
vt 0.1875 0.6
vt 0.1875 0.5
vt 0.1875 0.4
vt 0.1875 0.3
vt 0.1875 0.2
vt 0.1875 0.1
vt 0.1875 0
vt 0.1875 1
vt 0.125 0.9
vt 0.125 0.8
vt 0.125 0.7
vt 0.125 0.6
vt 0.125 0.5
vt 0.125 0.4
vt 0.125 0.3
vt 0.125 0.2
vt 0.125 0.1
vt 0.125 0
vt 0.125 1
vt 0.0625 0.9
vt 0.0625 0.8
vt 0.0625 0.7
vt 0.0625 0.6
vt 0.0625 0.5
vt 0.0625 0.4
vt 0.0625 0.3
vt 0.0625 0.2
vt 0.0625 0.1
vt 0.0625 0
vt 0.0625 1
vt 0 0.9
vt 0 0.8
vt 0 0.7
vt 0 0.6
vt 0 0.5
vt 0 0.4
vt 0 0.3
vt 0 0.2
vt 0 0.1
vt 0 0
vn 0.1562 0.9872 0.031
vn 0.4523 0.8873 0.09
vn 0.7002 0.7003 0.1394
vn 0.8773 0.4472 0.1745
vn 0.9692 0.1534 0.1927
vn 0.9692 -0.1534 0.1927
vn 0.8773 -0.4472 0.1745
vn 0.7002 -0.7003 0.1394
vn 0.4523 -0.8873 0.09
vn 0.1562 -0.9872 0.031
vn 0.1324 0.9872 0.0885
vn 0.3835 0.8873 0.2563
vn 0.5936 0.7004 0.3965
vn 0.7438 0.447 0.4969
vn 0.8216 0.1534 0.5491
vn 0.8216 -0.1534 0.5491
vn 0.7438 -0.447 0.4969
vn 0.5936 -0.7004 0.3965
vn 0.3835 -0.8873 0.2563
vn 0.1324 -0.9872 0.0885
vn 0.0885 0.9872 0.1324
vn 0.2563 0.8873 0.3835
vn 0.3965 0.7004 0.5936
vn 0.4969 0.447 0.7438
vn 0.5491 0.1534 0.8216
vn 0.5491 -0.1534 0.8216
vn 0.4969 -0.447 0.7438
vn 0.3965 -0.7004 0.5936
vn 0.2563 -0.8873 0.3835
vn 0.0885 -0.9872 0.1324
vn 0.031 0.9872 0.1562
vn 0.09 0.8873 0.4523
vn 0.1394 0.7003 0.7002
vn 0.1745 0.4472 0.8773
vn 0.1927 0.1534 0.9692
vn 0.1927 -0.1534 0.9692
vn 0.1745 -0.4472 0.8773
vn 0.1394 -0.7003 0.7002
vn 0.09 -0.8873 0.4523
vn 0.031 -0.9872 0.1562
vn -0.031 0.9872 0.1562
vn -0.09 0.8873 0.4523
vn -0.1394 0.7003 0.7002
vn -0.1745 0.4472 0.8773
vn -0.1927 0.1534 0.9692
vn -0.1927 -0.1534 0.9692
vn -0.1745 -0.4472 0.8773
vn -0.1394 -0.7003 0.7002
vn -0.09 -0.8873 0.4523
vn -0.031 -0.9872 0.1562
vn -0.0885 0.9872 0.1324
vn -0.2563 0.8873 0.3835
vn -0.3965 0.7004 0.5936
vn -0.4969 0.447 0.7438
vn -0.5491 0.1534 0.8216
vn -0.5491 -0.1534 0.8216
vn -0.4969 -0.447 0.7438
vn -0.3965 -0.7004 0.5936
vn -0.2563 -0.8873 0.3835
vn -0.0885 -0.9872 0.1324
vn -0.1324 0.9872 0.0885
vn -0.3835 0.8873 0.2563
vn -0.5936 0.7004 0.3965
vn -0.7438 0.447 0.4969
vn -0.8216 0.1534 0.5491
vn -0.8216 -0.1534 0.5491
vn -0.7438 -0.447 0.4969
vn -0.5936 -0.7004 0.3965
vn -0.3835 -0.8873 0.2563
vn -0.1324 -0.9872 0.0885
vn -0.1562 0.9872 0.031
vn -0.4523 0.8873 0.09
vn -0.7002 0.7003 0.1394
vn -0.8773 0.4472 0.1745
vn -0.9692 0.1534 0.1927
vn -0.9692 -0.1534 0.1927
vn -0.8773 -0.4472 0.1745
vn -0.7002 -0.7003 0.1394
vn -0.4523 -0.8873 0.09
vn -0.1562 -0.9872 0.031
vn -0.1562 0.9872 -0.031
vn -0.4523 0.8873 -0.09
vn -0.7002 0.7003 -0.1394
vn -0.8773 0.4472 -0.1745
vn -0.9692 0.1534 -0.1927
vn -0.9692 -0.1534 -0.1927
vn -0.8773 -0.4472 -0.1745
vn -0.7002 -0.7003 -0.1394
vn -0.4523 -0.8873 -0.09
vn -0.1562 -0.9872 -0.031
vn -0.1324 0.9872 -0.0885
vn -0.3835 0.8873 -0.2563
vn -0.5936 0.7004 -0.3965
vn -0.7438 0.447 -0.4969
vn -0.8216 0.1534 -0.5491
vn -0.8216 -0.1534 -0.5491
vn -0.7438 -0.447 -0.4969
vn -0.5936 -0.7004 -0.3965
vn -0.3835 -0.8873 -0.2563
vn -0.1324 -0.9872 -0.0885
vn -0.0885 0.9872 -0.1324
vn -0.2563 0.8873 -0.3835
vn -0.3965 0.7004 -0.5936
vn -0.4969 0.447 -0.7438
vn -0.5491 0.1534 -0.8216
vn -0.5491 -0.1534 -0.8216
vn -0.4969 -0.447 -0.7438
vn -0.3965 -0.7004 -0.5936
vn -0.2563 -0.8873 -0.3835
vn -0.0885 -0.9872 -0.1324
vn -0.031 0.9872 -0.1562
vn -0.09 0.8873 -0.4523
vn -0.1394 0.7003 -0.7002
vn -0.1745 0.4472 -0.8773
vn -0.1927 0.1534 -0.9692
vn -0.1927 -0.1534 -0.9692
vn -0.1745 -0.4472 -0.8773
vn -0.1394 -0.7003 -0.7002
vn -0.09 -0.8873 -0.4523
vn -0.031 -0.9872 -0.1562
vn 0.031 0.9872 -0.1562
vn 0.09 0.8873 -0.4523
vn 0.1394 0.7003 -0.7002
vn 0.1745 0.4472 -0.8773
vn 0.1927 0.1534 -0.9692
vn 0.1927 -0.1534 -0.9692
vn 0.1745 -0.4472 -0.8773
vn 0.1394 -0.7003 -0.7002
vn 0.09 -0.8873 -0.4523
vn 0.031 -0.9872 -0.1562
vn 0.0885 0.9872 -0.1324
vn 0.2563 0.8873 -0.3835
vn 0.3965 0.7004 -0.5936
vn 0.4969 0.447 -0.7438
vn 0.5491 0.1534 -0.8216
vn 0.5491 -0.1534 -0.8216
vn 0.4969 -0.447 -0.7438
vn 0.3965 -0.7004 -0.5936
vn 0.2563 -0.8873 -0.3835
vn 0.0885 -0.9872 -0.1324
vn 0.1324 0.9872 -0.0885
vn 0.3835 0.8873 -0.2563
vn 0.5936 0.7004 -0.3965
vn 0.7438 0.447 -0.4969
vn 0.8216 0.1534 -0.5491
vn 0.8216 -0.1534 -0.5491
vn 0.7438 -0.447 -0.4969
vn 0.5936 -0.7004 -0.3965
vn 0.3835 -0.8873 -0.2563
vn 0.1324 -0.9872 -0.0885
vn 0.1562 0.9872 -0.031
vn 0.4523 0.8873 -0.09
vn 0.7002 0.7003 -0.1394
vn 0.8773 0.4472 -0.1745
vn 0.9692 0.1534 -0.1927
vn 0.9692 -0.1534 -0.1927
vn 0.8773 -0.4472 -0.1745
vn 0.7002 -0.7003 -0.1394
vn 0.4523 -0.8873 -0.09
vn 0.1562 -0.9872 -0.031
usemtl sphereDefault
s off
f 1/1/1 12/2/1 2/3/1
f 2/3/2 12/2/2 13/4/2 3/5/2
f 3/5/3 13/4/3 14/6/3 4/7/3
f 4/7/4 14/6/4 15/8/4 5/9/4
f 5/9/5 15/8/5 16/10/5 6/11/5
f 6/11/6 16/10/6 17/12/6 7/13/6
f 7/13/7 17/12/7 18/14/7 8/15/7
f 8/15/8 18/14/8 19/16/8 9/17/8
f 9/17/9 19/16/9 20/18/9 10/19/9
f 10/19/10 20/18/10 11/20/10
f 1/21/11 21/22/11 12/2/11
f 12/2/12 21/22/12 22/23/12 13/4/12
f 13/4/13 22/23/13 23/24/13 14/6/13
f 14/6/14 23/24/14 24/25/14 15/8/14
f 15/8/15 24/25/15 25/26/15 16/10/15
f 16/10/16 25/26/16 26/27/16 17/12/16
f 17/12/17 26/27/17 27/28/17 18/14/17
f 18/14/18 27/28/18 28/29/18 19/16/18
f 19/16/19 28/29/19 29/30/19 20/18/19
f 20/18/20 29/30/20 11/31/20
f 1/32/21 30/33/21 21/22/21
f 21/22/22 30/33/22 31/34/22 22/23/22
f 22/23/23 31/34/23 32/35/23 23/24/23
f 23/24/24 32/35/24 33/36/24 24/25/24
f 24/25/25 33/36/25 34/37/25 25/26/25
f 25/26/26 34/37/26 35/38/26 26/27/26
f 26/27/27 35/38/27 36/39/27 27/28/27
f 27/28/28 36/39/28 37/40/28 28/29/28
f 28/29/29 37/40/29 38/41/29 29/30/29
f 29/30/30 38/41/30 11/42/30
f 1/43/31 39/44/31 30/33/31
f 30/33/32 39/44/32 40/45/32 31/34/32
f 31/34/33 40/45/33 41/46/33 32/35/33
f 32/35/34 41/46/34 42/47/34 33/36/34
f 33/36/35 42/47/35 43/48/35 34/37/35
f 34/37/36 43/48/36 44/49/36 35/38/36
f 35/38/37 44/49/37 45/50/37 36/39/37
f 36/39/38 45/50/38 46/51/38 37/40/38
f 37/40/39 46/51/39 47/52/39 38/41/39
f 38/41/40 47/52/40 11/53/40
f 1/54/41 48/55/41 39/44/41
f 39/44/42 48/55/42 49/56/42 40/45/42
f 40/45/43 49/56/43 50/57/43 41/46/43
f 41/46/44 50/57/44 51/58/44 42/47/44
f 42/47/45 51/58/45 52/59/45 43/48/45
f 43/48/46 52/59/46 53/60/46 44/49/46
f 44/49/47 53/60/47 54/61/47 45/50/47
f 45/50/48 54/61/48 55/62/48 46/51/48
f 46/51/49 55/62/49 56/63/49 47/52/49
f 47/52/50 56/63/50 11/64/50
f 1/65/51 57/66/51 48/55/51
f 48/55/52 57/66/52 58/67/52 49/56/52
f 49/56/53 58/67/53 59/68/53 50/57/53
f 50/57/54 59/68/54 60/69/54 51/58/54
f 51/58/55 60/69/55 61/70/55 52/59/55
f 52/59/56 61/70/56 62/71/56 53/60/56
f 53/60/57 62/71/57 63/72/57 54/61/57
f 54/61/58 63/72/58 64/73/58 55/62/58
f 55/62/59 64/73/59 65/74/59 56/63/59
f 56/63/60 65/74/60 11/75/60
f 1/76/61 66/77/61 57/66/61
f 57/66/62 66/77/62 67/78/62 58/67/62
f 58/67/63 67/78/63 68/79/63 59/68/63
f 59/68/64 68/79/64 69/80/64 60/69/64
f 60/69/65 69/80/65 70/81/65 61/70/65
f 61/70/66 70/81/66 71/82/66 62/71/66
f 62/71/67 71/82/67 72/83/67 63/72/67
f 63/72/68 72/83/68 73/84/68 64/73/68
f 64/73/69 73/84/69 74/85/69 65/74/69
f 65/74/70 74/85/70 11/86/70
f 1/87/71 75/88/71 66/77/71
f 66/77/72 75/88/72 76/89/72 67/78/72
f 67/78/73 76/89/73 77/90/73 68/79/73
f 68/79/74 77/90/74 78/91/74 69/80/74
f 69/80/75 78/91/75 79/92/75 70/81/75
f 70/81/76 79/92/76 80/93/76 71/82/76
f 71/82/77 80/93/77 81/94/77 72/83/77
f 72/83/78 81/94/78 82/95/78 73/84/78
f 73/84/79 82/95/79 83/96/79 74/85/79
f 74/85/80 83/96/80 11/97/80
f 1/98/81 84/99/81 75/88/81
f 75/88/82 84/99/82 85/100/82 76/89/82
f 76/89/83 85/100/83 86/101/83 77/90/83
f 77/90/84 86/101/84 87/102/84 78/91/84
f 78/91/85 87/102/85 88/103/85 79/92/85
f 79/92/86 88/103/86 89/104/86 80/93/86
f 80/93/87 89/104/87 90/105/87 81/94/87
f 81/94/88 90/105/88 91/106/88 82/95/88
f 82/95/89 91/106/89 92/107/89 83/96/89
f 83/96/90 92/107/90 11/108/90
f 1/109/91 93/110/91 84/99/91
f 84/99/92 93/110/92 94/111/92 85/100/92
f 85/100/93 94/111/93 95/112/93 86/101/93
f 86/101/94 95/112/94 96/113/94 87/102/94
f 87/102/95 96/113/95 97/114/95 88/103/95
f 88/103/96 97/114/96 98/115/96 89/104/96
f 89/104/97 98/115/97 99/116/97 90/105/97
f 90/105/98 99/116/98 100/117/98 91/106/98
f 91/106/99 100/117/99 101/118/99 92/107/99
f 92/107/100 101/118/100 11/119/100
f 1/120/101 102/121/101 93/110/101
f 93/110/102 102/121/102 103/122/102 94/111/102
f 94/111/103 103/122/103 104/123/103 95/112/103
f 95/112/104 104/123/104 105/124/104 96/113/104
f 96/113/105 105/124/105 106/125/105 97/114/105
f 97/114/106 106/125/106 107/126/106 98/115/106
f 98/115/107 107/126/107 108/127/107 99/116/107
f 99/116/108 108/127/108 109/128/108 100/117/108
f 100/117/109 109/128/109 110/129/109 101/118/109
f 101/118/110 110/129/110 11/130/110
f 1/131/111 111/132/111 102/121/111
f 102/121/112 111/132/112 112/133/112 103/122/112
f 103/122/113 112/133/113 113/134/113 104/123/113
f 104/123/114 113/134/114 114/135/114 105/124/114
f 105/124/115 114/135/115 115/136/115 106/125/115
f 106/125/116 115/136/116 116/137/116 107/126/116
f 107/126/117 116/137/117 117/138/117 108/127/117
f 108/127/118 117/138/118 118/139/118 109/128/118
f 109/128/119 118/139/119 119/140/119 110/129/119
f 110/129/120 119/140/120 11/141/120
f 1/142/121 120/143/121 111/132/121
f 111/132/122 120/143/122 121/144/122 112/133/122
f 112/133/123 121/144/123 122/145/123 113/134/123
f 113/134/124 122/145/124 123/146/124 114/135/124
f 114/135/125 123/146/125 124/147/125 115/136/125
f 115/136/126 124/147/126 125/148/126 116/137/126
f 116/137/127 125/148/127 126/149/127 117/138/127
f 117/138/128 126/149/128 127/150/128 118/139/128
f 118/139/129 127/150/129 128/151/129 119/140/129
f 119/140/130 128/151/130 11/152/130
f 1/153/131 129/154/131 120/143/131
f 120/143/132 129/154/132 130/155/132 121/144/132
f 121/144/133 130/155/133 131/156/133 122/145/133
f 122/145/134 131/156/134 132/157/134 123/146/134
f 123/146/135 132/157/135 133/158/135 124/147/135
f 124/147/136 133/158/136 134/159/136 125/148/136
f 125/148/137 134/159/137 135/160/137 126/149/137
f 126/149/138 135/160/138 136/161/138 127/150/138
f 127/150/139 136/161/139 137/162/139 128/151/139
f 128/151/140 137/162/140 11/163/140
f 1/164/141 138/165/141 129/154/141
f 129/154/142 138/165/142 139/166/142 130/155/142
f 130/155/143 139/166/143 140/167/143 131/156/143
f 131/156/144 140/167/144 141/168/144 132/157/144
f 132/157/145 141/168/145 142/169/145 133/158/145
f 133/158/146 142/169/146 143/170/146 134/159/146
f 134/159/147 143/170/147 144/171/147 135/160/147
f 135/160/148 144/171/148 145/172/148 136/161/148
f 136/161/149 145/172/149 146/173/149 137/162/149
f 137/162/150 146/173/150 11/174/150
f 1/175/151 2/176/151 138/165/151
f 138/165/152 2/176/152 3/177/152 139/166/152
f 139/166/153 3/177/153 4/178/153 140/167/153
f 140/167/154 4/178/154 5/179/154 141/168/154
f 141/168/155 5/179/155 6/180/155 142/169/155
f 142/169/156 6/180/156 7/181/156 143/170/156
f 143/170/157 7/181/157 8/182/157 144/171/157
f 144/171/158 8/182/158 9/183/158 145/172/158
f 145/172/159 9/183/159 10/184/159 146/173/159
f 146/173/160 10/184/160 11/185/160
